<?xml version="1.0" standalone="no"?>
<svg xmlns="http://www.w3.org/2000/svg" viewBox="0 0 101.27 116.936" width="101.27" height="116.936"><polygon fill="#0b0cac" points="101.27,29.234 101.27,87.702 50.635,116.936 0,87.702 0,29.234 50.635,0"></polygon><path fill="white" fill-rule="nonzero" d="M10.50 0Q13.27 0 15.48 0.84Q17.70 1.68 19.00 3.32Q20.30 4.96 20.30 7.31L20.30 7.31L14.39 7.31Q14.39 6.10 13.33 5.36Q12.26 4.62 10.75 4.62L10.75 4.62Q8.57 4.62 7.45 5.78Q6.33 6.94 6.33 9.07L6.33 9.07L6.33 10.86Q6.33 12.99 7.45 14.15Q8.57 15.32 10.75 15.32L10.75 15.32Q12.26 15.32 13.33 14.60Q14.39 13.89 14.39 12.77L14.39 12.77L10.02 12.77L10.02 8.85L20.30 8.85L20.30 19.60L17.11 19.60L16.49 17.70Q13.86 19.94 9.60 19.94L9.60 19.94Q4.82 19.94 2.41 17.43Q0 14.92 0 9.97L0 9.97Q0 5.07 2.73 2.53Q5.46 0 10.50 0L10.50 0Z" transform="translate(40.485, 23.5)"></path><g fill="white" color="white" transform="translate(28.634999999999998 51.436) scale(0.8461539)"><svg width="52.0" height="52.0" x="0.0" y="0.0" viewBox="0 0 52 52"><path fill="currentColor" fill-rule="evenodd" d="M18.22 33.35s9.278 9.366 25.673 11.515a26.024 26.024 0 0 1-4.652 3.512l-.054.034a25.875 25.875 0 0 1-13.82 3.58 26.054 26.054 0 0 1-4.701-.545c-.167-.035-.333-.078-.5-.116-2.487-6.099-2.5-12.173-2.247-15.465.12-1.574.301-2.515.301-2.515zM15.745 22.9S12.273 35.616 18.61 50.89a26.12 26.12 0 0 1-5.368-2.273l-.055-.03A25.865 25.865 0 0 1 3.175 38.408a26.147 26.147 0 0 1-1.878-4.343c-.054-.163-.099-.328-.15-.492 4.038-5.202 9.293-8.25 12.27-9.678 1.423-.683 2.328-.997 2.328-.997zm35.536-2.96c.445 1.86.695 3.795.716 5.786l.002.064a25.868 25.868 0 0 1-3.81 13.76 26.134 26.134 0 0 1-2.821 3.797c-.115.127-.235.249-.352.374-6.524-.895-11.79-3.921-14.516-5.786-1.302-.892-2.026-1.517-2.026-1.517S41.223 33.065 51.28 19.94zM6.983 8.25c6.525.895 11.792 3.922 14.517 5.786 1.302.89 2.026 1.517 2.026 1.517S10.778 18.904.718 32.028a26.047 26.047 0 0 1-.715-5.784L0 26.181A25.871 25.871 0 0 1 3.81 12.42a26.18 26.18 0 0 1 2.822-3.797c.114-.128.235-.25.351-.375zM33.39 1.07a26.021 26.021 0 0 1 5.368 2.272l.055.03a25.864 25.864 0 0 1 10.012 10.18 25.98 25.98 0 0 1 1.878 4.342c.053.163.098.327.149.492-4.038 5.203-9.292 8.25-12.27 9.678-1.422.682-2.327.997-2.327.997s3.471-12.719-2.865-27.991zM26.134 0l.503.007c1.582.04 3.157.221 4.7.545.167.036.333.079.5.117 2.487 6.098 2.499 12.172 2.247 15.465-.12 1.573-.301 2.515-.301 2.515S24.506 9.283 8.11 7.135a26.1 26.1 0 0 1 4.651-3.513c.019-.01.036-.023.055-.033A25.877 25.877 0 0 1 26.637.009z"></path></svg></g></svg>